<?xml version="1.0" standalone="no"?>
<!DOCTYPE svg PUBLIC "-//W3C//DTD SVG 20010904//EN"
 "http://www.w3.org/TR/2001/REC-SVG-20010904/DTD/svg10.dtd">
<svg version="1.0" xmlns="http://www.w3.org/2000/svg"
 width="2684.000000pt" height="2684.000000pt" viewBox="0 0 2684.000000 2684.000000"
 preserveAspectRatio="xMidYMid meet">
<metadata>
Created by potrace 1.14, written by Peter Selinger 2001-2017
</metadata>
<g transform="translate(0.000000,2684.000000) scale(0.100000,-0.100000)"
fill="#000000" stroke="none">
<path d="M3085 24669 c-156 -12 -255 -31 -390 -76 -269 -89 -532 -269 -704
-483 -20 -25 -38 -47 -41 -50 -17 -15 -104 -157 -144 -232 -60 -114 -118 -286
-141 -418 -4 -19 -9 -48 -12 -65 -9 -50 -12 -347 -3 -400 4 -27 11 -70 14 -95
8 -61 50 -205 87 -299 89 -224 248 -443 434 -600 l60 -51 1 -9722 0 -9723 23
-90 c13 -49 34 -112 47 -138 13 -27 24 -53 24 -59 0 -6 25 -48 54 -93 163
-244 414 -401 687 -431 78 -9 20769 -9 20819 -1 19 4 53 9 75 12 96 16 279 96
359 158 237 182 364 398 394 667 8 75 7 13925 -1 13955 -3 11 -10 40 -16 65
-62 269 -253 512 -499 635 -69 35 -168 70 -221 80 -14 3 -37 8 -51 12 -14 3
-1964 7 -4334 8 l-4309 2 -30 34 c-241 276 -503 443 -822 524 -88 22 -121 28
-234 40 -457 47 -939 -132 -1259 -469 -72 -76 -192 -230 -192 -246 0 -5 -6
-15 -13 -22 -23 -23 -114 -220 -145 -314 -56 -168 -77 -304 -76 -494 0 -99 11
-247 19 -259 1 -3 6 -24 9 -46 12 -74 68 -239 116 -342 124 -264 313 -481 555
-639 515 -335 1186 -332 1693 7 128 86 275 219 348 314 l26 35 3782 -2 3781
-3 1 -5920 0 -5920 -9366 0 -9367 0 0 9198 c0 5058 4 9197 8 9197 4 0 53 44
109 97 231 220 392 506 454 805 40 195 41 444 2 623 -34 154 -60 230 -122 360
-174 369 -502 661 -889 793 -194 67 -408 96 -600 81z"/>
<path d="M23078 24676 c-1 -2 -53 -6 -114 -9 -404 -22 -809 -228 -1080 -551
l-41 -48 -6689 -2 c-3679 -1 -6700 -5 -6714 -9 -14 -4 -36 -9 -50 -12 -59 -11
-161 -50 -237 -91 -229 -124 -400 -340 -475 -599 l-23 -80 -3 -6980 c-2 -5087
0 -7002 8 -7060 59 -422 414 -768 834 -811 34 -4 1780 -7 3881 -7 l3820 0 30
-36 c216 -261 501 -441 825 -521 141 -35 203 -43 346 -45 471 -7 914 195 1214
556 142 171 249 379 305 594 37 143 47 225 48 390 0 187 -21 318 -79 495 -126
380 -409 705 -769 885 -96 48 -259 110 -320 121 -45 9 -73 14 -125 26 -61 13
-376 17 -455 6 -390 -59 -732 -248 -974 -538 l-46 -55 -3332 0 c-1833 0 -3333
2 -3333 5 -1 7 -1 11759 0 11833 l0 57 6159 0 6159 0 28 -37 c84 -112 265
-268 407 -351 80 -47 190 -102 205 -102 4 0 18 -6 32 -13 27 -14 192 -62 245
-72 123 -22 186 -27 295 -27 201 0 324 19 501 78 385 128 708 410 893 779 60
119 170 454 183 555 10 78 2 267 -12 290 -2 3 -6 21 -9 40 -14 86 -102 355
-150 456 -242 508 -727 843 -1276 880 -47 3 -90 7 -97 9 -6 2 -13 2 -15 1z"/>
</g>
</svg>
